# Rhino

v 0.5 0.35857865214347839 0.26253888010978699
v 0.35857865214347839 0.5 0.26253888010978699
v 0.64142137765884399 0.5 0.26253888010978699
v 0.5 0.64142137765884399 0.26253888010978699
v 1 1 0
v 1 0.85857862234115601 0
v 1 1 0.23746111989021301
v 1 0.85857862234115601 0.23746111989021301
v 1 0.85857862234115601 0
v 0.64142137765884399 0.5 0.26253888010978699
v 1 0.85857862234115601 0.23746111989021301
v 0.64142137765884399 0.5 0.5
v 0.64142137765884399 0.5 0.26253888010978699
v 1 0.1414213627576828 0
v 0.64142137765884399 0.5 0.5
v 1 0.1414213627576828 0.23746111989021301
v 1 0.1414213627576828 0
v 1 0 0
v 1 0.1414213627576828 0.23746111989021301
v 1 0 0.23746111989021301
v 1 0 0
v 0.85857862234115601 0 0
v 1 0 0.23746111989021301
v 0.85857862234115601 0 0.23746111989021301
v 0.85857862234115601 0 0
v 0.5 0.35857865214347839 0.26253888010978699
v 0.85857862234115601 0 0.23746111989021301
v 0.5 0.35857865214347839 0.5
v 0.5 0.35857865214347839 0.26253888010978699
v 0.1414213627576828 0 0
v 0.5 0.35857865214347839 0.5
v 0.1414213627576828 0 0.23746111989021301
v 0.1414213627576828 0 0
v 0 0 0
v 0.1414213627576828 0 0.23746111989021301
v 0 0 0.23746111989021301
v 0 0 0
v 0 0.1414213627576828 0
v 0 0 0.23746111989021301
v 0 0.1414213627576828 0.23746111989021301
v 0 0.1414213627576828 0
v 0.35857865214347839 0.5 0.26253888010978699
v 0 0.1414213627576828 0.23746111989021301
v 0.35857865214347839 0.5 0.5
v 0.35857865214347839 0.5 0.26253888010978699
v 0 0.85857862234115601 0
v 0.35857865214347839 0.5 0.5
v 0 0.85857862234115601 0.23746111989021301
v 0 0.85857862234115601 0
v 0 1 0
v 0 0.85857862234115601 0.23746111989021301
v 0 1 0.23746111989021301
v 0 1 0
v 0.1414213627576828 1 0
v 0 1 0.23746111989021301
v 0.1414213627576828 1 0.23746111989021301
v 0.1414213627576828 1 0
v 0.5 0.64142137765884399 0.26253888010978699
v 0.1414213627576828 1 0.23746111989021301
v 0.5 0.64142137765884399 0.5
v 0.5 0.64142137765884399 0.26253888010978699
v 0.85857862234115601 1 0
v 0.5 0.64142137765884399 0.5
v 0.85857862234115601 1 0.23746111989021301
v 0.85857862234115601 1 0
v 1 1 0
v 0.85857862234115601 1 0.23746111989021301
v 1 1 0.23746111989021301
v 0 0.85857862234115601 0.23746111989021301
v 0 1 0.23746111989021301
v 0.1414213627576828 1 0.23746111989021301
v 0 1 0.23746111989021301
v 0 0.85857862234115601 0.23746111989021301
v 0.35857865214347839 0.5 0.5
v 0.1414213627576828 1 0.23746111989021301
v 0.5 0.64142137765884399 0.5
v 0.1414213627576828 0 0.23746111989021301
v 0 0 0.23746111989021301
v 0 0.1414213627576828 0.23746111989021301
v 0 0 0.23746111989021301
v 0.1414213627576828 0 0.23746111989021301
v 0.5 0.35857865214347839 0.5
v 0 0.1414213627576828 0.23746111989021301
v 0.35857865214347839 0.5 0.5
v 1 0.1414213627576828 0.23746111989021301
v 1 0 0.23746111989021301
v 0.85857862234115601 0 0.23746111989021301
v 1 0 0.23746111989021301
v 1 0.1414213627576828 0.23746111989021301
v 0.64142137765884399 0.5 0.5
v 0.85857862234115601 0 0.23746111989021301
v 0.5 0.35857865214347839 0.5
v 0.85857862234115601 1 0.23746111989021301
v 1 1 0.23746111989021301
v 1 1 0.23746111989021301
v 1 0.85857862234115601 0.23746111989021301
v 1 1 0.23746111989021301
v 0.85857862234115601 1 0.23746111989021301
v 0.5 0.64142137765884399 0.5
v 1 0.85857862234115601 0.23746111989021301
v 0.64142137765884399 0.5 0.5
v 0 0.85857862234115601 0
v 0 1 0
v 0.1414213627576828 1 0
v 0 1 0
v 0 0.85857862234115601 0
v 0.35857865214347839 0.5 0.26253888010978699
v 0.1414213627576828 1 0
v 0.5 0.64142137765884399 0.26253888010978699
v 0.1414213627576828 0 0
v 0 0 0
v 0 0.1414213627576828 0
v 0 0 0
v 0.1414213627576828 0 0
v 0.5 0.35857865214347839 0.26253888010978699
v 0 0.1414213627576828 0
v 0.35857865214347839 0.5 0.26253888010978699
v 1 0.1414213627576828 0
v 1 0 0
v 0.85857862234115601 0 0
v 1 0 0
v 1 0.1414213627576828 0
v 0.64142137765884399 0.5 0.26253888010978699
v 0.85857862234115601 0 0
v 0.5 0.35857865214347839 0.26253888010978699
v 0.85857862234115601 1 0
v 1 1 0
v 1 1 0
v 1 0.85857862234115601 0
v 1 1 0
v 0.85857862234115601 1 0
v 0.5 0.64142137765884399 0.26253888010978699
v 1 0.85857862234115601 0
v 0.64142137765884399 0.5 0.26253888010978699
v 0.5 0.35857865214347839 0.73746109008789063
v 0.35857865214347839 0.5 0.73746109008789063
v 0.64142137765884399 0.5 0.73746109008789063
v 0.5 0.64142137765884399 0.73746109008789063
v 1 1 1
v 1 0.85857862234115601 1
v 1 1 0.76253890991210938
v 1 0.85857862234115601 0.76253890991210938
v 1 0.85857862234115601 1
v 0.64142137765884399 0.5 0.73746109008789063
v 1 0.85857862234115601 0.76253890991210938
v 0.64142137765884399 0.5 0.5
v 0.64142137765884399 0.5 0.73746109008789063
v 1 0.1414213627576828 1
v 0.64142137765884399 0.5 0.5
v 1 0.1414213627576828 0.76253890991210938
v 1 0.1414213627576828 1
v 1 0 1
v 1 0.1414213627576828 0.76253890991210938
v 1 0 0.76253890991210938
v 1 0 1
v 0.85857862234115601 0 1
v 1 0 0.76253890991210938
v 0.85857862234115601 0 0.76253890991210938
v 0.85857862234115601 0 1
v 0.5 0.35857865214347839 0.73746109008789063
v 0.85857862234115601 0 0.76253890991210938
v 0.5 0.35857865214347839 0.5
v 0.5 0.35857865214347839 0.73746109008789063
v 0.1414213627576828 0 1
v 0.5 0.35857865214347839 0.5
v 0.1414213627576828 0 0.76253890991210938
v 0.1414213627576828 0 1
v 0 0 1
v 0.1414213627576828 0 0.76253890991210938
v 0 0 0.76253890991210938
v 0 0 1
v 0 0.1414213627576828 1
v 0 0 0.76253890991210938
v 0 0.1414213627576828 0.76253890991210938
v 0 0.1414213627576828 1
v 0.35857865214347839 0.5 0.73746109008789063
v 0 0.1414213627576828 0.76253890991210938
v 0.35857865214347839 0.5 0.5
v 0.35857865214347839 0.5 0.73746109008789063
v 0 0.85857862234115601 1
v 0.35857865214347839 0.5 0.5
v 0 0.85857862234115601 0.76253890991210938
v 0 0.85857862234115601 1
v 0 1 1
v 0 0.85857862234115601 0.76253890991210938
v 0 1 0.76253890991210938
v 0 1 1
v 0.1414213627576828 1 1
v 0 1 0.76253890991210938
v 0.1414213627576828 1 0.76253890991210938
v 0.1414213627576828 1 1
v 0.5 0.64142137765884399 0.73746109008789063
v 0.1414213627576828 1 0.76253890991210938
v 0.5 0.64142137765884399 0.5
v 0.5 0.64142137765884399 0.73746109008789063
v 0.85857862234115601 1 1
v 0.5 0.64142137765884399 0.5
v 0.85857862234115601 1 0.76253890991210938
v 0.85857862234115601 1 1
v 1 1 1
v 0.85857862234115601 1 0.76253890991210938
v 1 1 0.76253890991210938
v 0 0.85857862234115601 0.76253890991210938
v 0 1 0.76253890991210938
v 0.1414213627576828 1 0.76253890991210938
v 0 1 0.76253890991210938
v 0 0.85857862234115601 0.76253890991210938
v 0.35857865214347839 0.5 0.5
v 0.1414213627576828 1 0.76253890991210938
v 0.5 0.64142137765884399 0.5
v 0.1414213627576828 0 0.76253890991210938
v 0 0 0.76253890991210938
v 0 0.1414213627576828 0.76253890991210938
v 0 0 0.76253890991210938
v 0.1414213627576828 0 0.76253890991210938
v 0.5 0.35857865214347839 0.5
v 0 0.1414213627576828 0.76253890991210938
v 0.35857865214347839 0.5 0.5
v 1 0.1414213627576828 0.76253890991210938
v 1 0 0.76253890991210938
v 0.85857862234115601 0 0.76253890991210938
v 1 0 0.76253890991210938
v 1 0.1414213627576828 0.76253890991210938
v 0.64142137765884399 0.5 0.5
v 0.85857862234115601 0 0.76253890991210938
v 0.5 0.35857865214347839 0.5
v 0.85857862234115601 1 0.76253890991210938
v 1 1 0.76253890991210938
v 1 1 0.76253890991210938
v 1 0.85857862234115601 0.76253890991210938
v 1 1 0.76253890991210938
v 0.85857862234115601 1 0.76253890991210938
v 0.5 0.64142137765884399 0.5
v 1 0.85857862234115601 0.76253890991210938
v 0.64142137765884399 0.5 0.5
v 0 0.85857862234115601 1
v 0 1 1
v 0.1414213627576828 1 1
v 0 1 1
v 0 0.85857862234115601 1
v 0.35857865214347839 0.5 0.73746109008789063
v 0.1414213627576828 1 1
v 0.5 0.64142137765884399 0.73746109008789063
v 0.1414213627576828 0 1
v 0 0 1
v 0 0.1414213627576828 1
v 0 0 1
v 0.1414213627576828 0 1
v 0.5 0.35857865214347839 0.73746109008789063
v 0 0.1414213627576828 1
v 0.35857865214347839 0.5 0.73746109008789063
v 1 0.1414213627576828 1
v 1 0 1
v 0.85857862234115601 0 1
v 1 0 1
v 1 0.1414213627576828 1
v 0.64142137765884399 0.5 0.73746109008789063
v 0.85857862234115601 0 1
v 0.5 0.35857865214347839 0.73746109008789063
v 0.85857862234115601 1 1
v 1 1 1
v 1 1 1
v 1 0.85857862234115601 1
v 1 1 1
v 0.85857862234115601 1 1
v 0.5 0.64142137765884399 0.73746109008789063
v 1 0.85857862234115601 1
v 0.64142137765884399 0.5 0.73746109008789063
vn 0 0 -1
vn 0 0 -1
vn 0 0 -1
vn 0 0 -1
vn 1 0 0
vn 1 0 0
vn 1 0 0
vn 1 0 0
vn 0.70710676908493042 -0.70710676908493042 0
vn 0.70710676908493042 -0.70710676908493042 0
vn 0.70710676908493042 -0.70710676908493042 0
vn 0.70710676908493042 -0.70710676908493042 0
vn 0.70710676908493042 0.70710676908493042 0
vn 0.70710676908493042 0.70710676908493042 0
vn 0.70710676908493042 0.70710676908493042 0
vn 0.70710676908493042 0.70710676908493042 0
vn 1 0 0
vn 1 0 0
vn 1 0 0
vn 1 0 0
vn 0 -1 0
vn 0 -1 0
vn 0 -1 0
vn 0 -1 0
vn -0.70710676908493042 -0.70710676908493042 0
vn -0.70710676908493042 -0.70710676908493042 0
vn -0.70710676908493042 -0.70710676908493042 0
vn -0.70710676908493042 -0.70710676908493042 0
vn 0.70710676908493042 -0.70710676908493042 0
vn 0.70710676908493042 -0.70710676908493042 0
vn 0.70710676908493042 -0.70710676908493042 0
vn 0.70710676908493042 -0.70710676908493042 0
vn 0 -1 0
vn 0 -1 0
vn 0 -1 0
vn 0 -1 0
vn -1 0 0
vn -1 0 0
vn -1 0 0
vn -1 0 0
vn -0.70710676908493042 0.70710676908493042 0
vn -0.70710676908493042 0.70710676908493042 0
vn -0.70710676908493042 0.70710676908493042 0
vn -0.70710676908493042 0.70710676908493042 0
vn -0.70710676908493042 -0.70710676908493042 0
vn -0.70710676908493042 -0.70710676908493042 0
vn -0.70710676908493042 -0.70710676908493042 0
vn -0.70710676908493042 -0.70710676908493042 0
vn -1 0 0
vn -1 0 0
vn -1 0 0
vn -1 0 0
vn 0 1 0
vn 0 1 0
vn 0 1 0
vn 0 1 0
vn 0.70710676908493042 0.70710676908493042 0
vn 0.70710676908493042 0.70710676908493042 0
vn 0.70710676908493042 0.70710676908493042 0
vn 0.70710676908493042 0.70710676908493042 0
vn -0.70710676908493042 0.70710676908493042 0
vn -0.70710676908493042 0.70710676908493042 0
vn -0.70710676908493042 0.70710676908493042 0
vn -0.70710676908493042 0.70710676908493042 0
vn 0 1 0
vn 0 1 0
vn 0 1 0
vn 0 1 0
vn 0 0 1
vn 0 0 1
vn 0 0 1
vn 0 0 1
vn -0.3250977098941803 0.3250977098941803 0.88804447650909424
vn -0.3250977098941803 0.3250977098941803 0.88804447650909424
vn -0.3250977098941803 0.3250977098941803 0.88804447650909424
vn -0.3250977098941803 0.3250977098941803 0.88804447650909424
vn 0 0 1
vn 0 0 1
vn 0 0 1
vn 0 0 1
vn -0.3250977098941803 -0.3250977098941803 0.88804447650909424
vn -0.3250977098941803 -0.3250977098941803 0.88804447650909424
vn -0.3250977098941803 -0.3250977098941803 0.88804447650909424
vn -0.3250977098941803 -0.3250977098941803 0.88804447650909424
vn 0 0 1
vn 0 0 1
vn 0 0 1
vn 0 0 1
vn 0.3250977098941803 -0.3250977098941803 0.88804447650909424
vn 0.3250977098941803 -0.3250977098941803 0.88804447650909424
vn 0.3250977098941803 -0.3250977098941803 0.88804447650909424
vn 0.3250977098941803 -0.3250977098941803 0.88804447650909424
vn 0 0 1
vn 0 0 1
vn 0 0 1
vn 0 0 1
vn 0 0 1
vn 0.3250977098941803 0.3250977098941803 0.88804447650909424
vn 0.3250977098941803 0.3250977098941803 0.88804447650909424
vn 0.3250977098941803 0.3250977098941803 0.88804447650909424
vn 0.3250977098941803 0.3250977098941803 0.88804447650909424
vn 0 0 -1
vn 0 0 -1
vn 0 0 -1
vn 0 0 -1
vn 0.3250977098941803 -0.3250977098941803 -0.88804447650909424
vn 0.3250977098941803 -0.3250977098941803 -0.88804447650909424
vn 0.3250977098941803 -0.3250977098941803 -0.88804447650909424
vn 0.3250977098941803 -0.3250977098941803 -0.88804447650909424
vn 0 0 -1
vn 0 0 -1
vn 0 0 -1
vn 0 0 -1
vn 0.3250977098941803 0.3250977098941803 -0.88804447650909424
vn 0.3250977098941803 0.3250977098941803 -0.88804447650909424
vn 0.3250977098941803 0.3250977098941803 -0.88804447650909424
vn 0.3250977098941803 0.3250977098941803 -0.88804447650909424
vn 0 0 -1
vn 0 0 -1
vn 0 0 -1
vn 0 0 -1
vn -0.3250977098941803 0.3250977098941803 -0.88804447650909424
vn -0.3250977098941803 0.3250977098941803 -0.88804447650909424
vn -0.3250977098941803 0.3250977098941803 -0.88804447650909424
vn -0.3250977098941803 0.3250977098941803 -0.88804447650909424
vn 0 0 -1
vn 0 0 -1
vn 0 0 -1
vn 0 0 -1
vn 0 0 -1
vn -0.3250977098941803 -0.3250977098941803 -0.88804447650909424
vn -0.3250977098941803 -0.3250977098941803 -0.88804447650909424
vn -0.3250977098941803 -0.3250977098941803 -0.88804447650909424
vn -0.3250977098941803 -0.3250977098941803 -0.88804447650909424
vn 0 0 1
vn 0 0 1
vn 0 0 1
vn 0 0 1
vn 1 0 0
vn 1 0 0
vn 1 0 0
vn 1 0 0
vn 0.70710676908493042 -0.70710676908493042 0
vn 0.70710676908493042 -0.70710676908493042 0
vn 0.70710676908493042 -0.70710676908493042 0
vn 0.70710676908493042 -0.70710676908493042 0
vn 0.70710676908493042 0.70710676908493042 0
vn 0.70710676908493042 0.70710676908493042 0
vn 0.70710676908493042 0.70710676908493042 0
vn 0.70710676908493042 0.70710676908493042 0
vn 1 0 0
vn 1 0 0
vn 1 0 0
vn 1 0 0
vn 0 -1 0
vn 0 -1 0
vn 0 -1 0
vn 0 -1 0
vn -0.70710676908493042 -0.70710676908493042 0
vn -0.70710676908493042 -0.70710676908493042 0
vn -0.70710676908493042 -0.70710676908493042 0
vn -0.70710676908493042 -0.70710676908493042 0
vn 0.70710676908493042 -0.70710676908493042 0
vn 0.70710676908493042 -0.70710676908493042 0
vn 0.70710676908493042 -0.70710676908493042 0
vn 0.70710676908493042 -0.70710676908493042 0
vn 0 -1 0
vn 0 -1 0
vn 0 -1 0
vn 0 -1 0
vn -1 0 0
vn -1 0 0
vn -1 0 0
vn -1 0 0
vn -0.70710676908493042 0.70710676908493042 0
vn -0.70710676908493042 0.70710676908493042 0
vn -0.70710676908493042 0.70710676908493042 0
vn -0.70710676908493042 0.70710676908493042 0
vn -0.70710676908493042 -0.70710676908493042 0
vn -0.70710676908493042 -0.70710676908493042 0
vn -0.70710676908493042 -0.70710676908493042 0
vn -0.70710676908493042 -0.70710676908493042 0
vn -1 0 0
vn -1 0 0
vn -1 0 0
vn -1 0 0
vn 0 1 0
vn 0 1 0
vn 0 1 0
vn 0 1 0
vn 0.70710676908493042 0.70710676908493042 0
vn 0.70710676908493042 0.70710676908493042 0
vn 0.70710676908493042 0.70710676908493042 0
vn 0.70710676908493042 0.70710676908493042 0
vn -0.70710676908493042 0.70710676908493042 0
vn -0.70710676908493042 0.70710676908493042 0
vn -0.70710676908493042 0.70710676908493042 0
vn -0.70710676908493042 0.70710676908493042 0
vn 0 1 0
vn 0 1 0
vn 0 1 0
vn 0 1 0
vn 0 0 -1
vn 0 0 -1
vn 0 0 -1
vn 0 0 -1
vn -0.3250977098941803 0.3250977098941803 -0.88804447650909424
vn -0.3250977098941803 0.3250977098941803 -0.88804447650909424
vn -0.3250977098941803 0.3250977098941803 -0.88804447650909424
vn -0.3250977098941803 0.3250977098941803 -0.88804447650909424
vn 0 0 -1
vn 0 0 -1
vn 0 0 -1
vn 0 0 -1
vn -0.3250977098941803 -0.3250977098941803 -0.88804447650909424
vn -0.3250977098941803 -0.3250977098941803 -0.88804447650909424
vn -0.3250977098941803 -0.3250977098941803 -0.88804447650909424
vn -0.3250977098941803 -0.3250977098941803 -0.88804447650909424
vn 0 0 -1
vn 0 0 -1
vn 0 0 -1
vn 0 0 -1
vn 0.3250977098941803 -0.3250977098941803 -0.88804447650909424
vn 0.3250977098941803 -0.3250977098941803 -0.88804447650909424
vn 0.3250977098941803 -0.3250977098941803 -0.88804447650909424
vn 0.3250977098941803 -0.3250977098941803 -0.88804447650909424
vn 0 0 -1
vn 0 0 -1
vn 0 0 -1
vn 0 0 -1
vn 0 0 -1
vn 0.3250977098941803 0.3250977098941803 -0.88804447650909424
vn 0.3250977098941803 0.3250977098941803 -0.88804447650909424
vn 0.3250977098941803 0.3250977098941803 -0.88804447650909424
vn 0.3250977098941803 0.3250977098941803 -0.88804447650909424
vn 0 0 1
vn 0 0 1
vn 0 0 1
vn 0 0 1
vn 0.3250977098941803 -0.3250977098941803 0.88804447650909424
vn 0.3250977098941803 -0.3250977098941803 0.88804447650909424
vn 0.3250977098941803 -0.3250977098941803 0.88804447650909424
vn 0.3250977098941803 -0.3250977098941803 0.88804447650909424
vn 0 0 1
vn 0 0 1
vn 0 0 1
vn 0 0 1
vn 0.3250977098941803 0.3250977098941803 0.88804447650909424
vn 0.3250977098941803 0.3250977098941803 0.88804447650909424
vn 0.3250977098941803 0.3250977098941803 0.88804447650909424
vn 0.3250977098941803 0.3250977098941803 0.88804447650909424
vn 0 0 1
vn 0 0 1
vn 0 0 1
vn 0 0 1
vn -0.3250977098941803 0.3250977098941803 0.88804447650909424
vn -0.3250977098941803 0.3250977098941803 0.88804447650909424
vn -0.3250977098941803 0.3250977098941803 0.88804447650909424
vn -0.3250977098941803 0.3250977098941803 0.88804447650909424
vn 0 0 1
vn 0 0 1
vn 0 0 1
vn 0 0 1
vn 0 0 1
vn -0.3250977098941803 -0.3250977098941803 0.88804447650909424
vn -0.3250977098941803 -0.3250977098941803 0.88804447650909424
vn -0.3250977098941803 -0.3250977098941803 0.88804447650909424
vn -0.3250977098941803 -0.3250977098941803 0.88804447650909424
f 2//2 4//4 3//3 1//1
f 6//6 5//5 7//7 8//8
f 10//10 9//9 11//11 12//12
f 14//14 13//13 15//15 16//16
f 18//18 17//17 19//19 20//20
f 22//22 21//21 23//23 24//24
f 26//26 25//25 27//27 28//28
f 30//30 29//29 31//31 32//32
f 34//34 33//33 35//35 36//36
f 38//38 37//37 39//39 40//40
f 42//42 41//41 43//43 44//44
f 46//46 45//45 47//47 48//48
f 50//50 49//49 51//51 52//52
f 54//54 53//53 55//55 56//56
f 58//58 57//57 59//59 60//60
f 62//62 61//61 63//63 64//64
f 66//66 65//65 67//67 68//68
f 70//70 69//69 71//71
f 74//74 76//76 75//75 73//73
f 78//78 77//77 79//79
f 82//82 84//84 83//83 81//81
f 86//86 85//85 87//87
f 90//90 92//92 91//91 89//89
f 93//93 96//96 95//95
f 99//99 101//101 100//100 98//98
f 103//103 104//104 102//102
f 107//107 106//106 108//108 109//109
f 111//111 112//112 110//110
f 115//115 114//114 116//116 117//117
f 119//119 120//120 118//118
f 123//123 122//122 124//124 125//125
f 126//126 128//128 129//129
f 132//132 131//131 133//133 134//134
f 136//136 135//135 137//137 138//138
f 140//140 142//142 141//141 139//139
f 144//144 146//146 145//145 143//143
f 148//148 150//150 149//149 147//147
f 152//152 154//154 153//153 151//151
f 156//156 158//158 157//157 155//155
f 160//160 162//162 161//161 159//159
f 164//164 166//166 165//165 163//163
f 168//168 170//170 169//169 167//167
f 172//172 174//174 173//173 171//171
f 176//176 178//178 177//177 175//175
f 180//180 182//182 181//181 179//179
f 184//184 186//186 185//185 183//183
f 188//188 190//190 189//189 187//187
f 192//192 194//194 193//193 191//191
f 196//196 198//198 197//197 195//195
f 200//200 202//202 201//201 199//199
f 204//204 205//205 203//203
f 208//208 207//207 209//209 210//210
f 212//212 213//213 211//211
f 216//216 215//215 217//217 218//218
f 220//220 221//221 219//219
f 224//224 223//223 225//225 226//226
f 227//227 229//229 230//230
f 233//233 232//232 234//234 235//235
f 237//237 236//236 238//238
f 241//241 243//243 242//242 240//240
f 245//245 244//244 246//246
f 249//249 251//251 250//250 248//248
f 253//253 252//252 254//254
f 257//257 259//259 258//258 256//256
f 260//260 263//263 262//262
f 266//266 268//268 267//267 265//265
